<mxfile host="app.diagrams.net" modified="2022-11-23T10:53:26.905Z" agent="5.0 (Windows NT 10.0; Win64; x64) AppleWebKit/537.36 (KHTML, like Gecko) Chrome/107.0.0.0 Safari/537.36" etag="e_FTUM6_sWrRn_7b8pDk" version="20.6.0" type="github">
  <diagram id="kMfJ55h3UKYqr6iciaz8" name="Page-1">
    <mxGraphModel dx="2500" dy="2070" grid="1" gridSize="10" guides="1" tooltips="1" connect="1" arrows="1" fold="1" page="1" pageScale="1" pageWidth="827" pageHeight="1169" math="0" shadow="0">
      <root>
        <mxCell id="0" />
        <mxCell id="1" parent="0" />
        <mxCell id="63GdLwM-r-2odrJ0A331-6" style="edgeStyle=orthogonalEdgeStyle;rounded=0;orthogonalLoop=1;jettySize=auto;html=1;entryX=0;entryY=0.5;entryDx=0;entryDy=0;endArrow=none;endFill=0;" edge="1" parent="1" target="63GdLwM-r-2odrJ0A331-4">
          <mxGeometry relative="1" as="geometry">
            <mxPoint x="-50" y="300" as="sourcePoint" />
          </mxGeometry>
        </mxCell>
        <mxCell id="6Lm_i7tMnPeAvsVVQIEV-1" value="USER" style="shape=umlActor;verticalLabelPosition=bottom;verticalAlign=top;html=1;outlineConnect=0;" parent="1" vertex="1">
          <mxGeometry x="-130" y="270" width="30" height="60" as="geometry" />
        </mxCell>
        <mxCell id="6Lm_i7tMnPeAvsVVQIEV-2" value="REMOVE" style="ellipse;whiteSpace=wrap;html=1;" parent="1" vertex="1">
          <mxGeometry x="560" y="60" width="96" height="50" as="geometry" />
        </mxCell>
        <mxCell id="6Lm_i7tMnPeAvsVVQIEV-25" style="orthogonalLoop=1;jettySize=auto;html=1;entryX=0.5;entryY=1;entryDx=0;entryDy=0;rounded=0;" parent="1" source="6Lm_i7tMnPeAvsVVQIEV-5" edge="1" target="6Lm_i7tMnPeAvsVVQIEV-10">
          <mxGeometry relative="1" as="geometry">
            <mxPoint x="406" y="260" as="targetPoint" />
          </mxGeometry>
        </mxCell>
        <mxCell id="63GdLwM-r-2odrJ0A331-39" style="edgeStyle=none;rounded=0;orthogonalLoop=1;jettySize=auto;html=1;startArrow=none;startFill=0;endArrow=classic;endFill=1;" edge="1" parent="1" source="6Lm_i7tMnPeAvsVVQIEV-5" target="63GdLwM-r-2odrJ0A331-38">
          <mxGeometry relative="1" as="geometry" />
        </mxCell>
        <mxCell id="6Lm_i7tMnPeAvsVVQIEV-5" value="ADD EXPENSE" style="ellipse;whiteSpace=wrap;html=1;" parent="1" vertex="1">
          <mxGeometry x="226" y="10" width="96" height="50" as="geometry" />
        </mxCell>
        <mxCell id="6Lm_i7tMnPeAvsVVQIEV-26" style="edgeStyle=orthogonalEdgeStyle;rounded=0;orthogonalLoop=1;jettySize=auto;html=1;entryX=0;entryY=0.5;entryDx=0;entryDy=0;" parent="1" source="6Lm_i7tMnPeAvsVVQIEV-6" edge="1" target="6Lm_i7tMnPeAvsVVQIEV-8">
          <mxGeometry relative="1" as="geometry">
            <mxPoint x="424" y="240" as="targetPoint" />
          </mxGeometry>
        </mxCell>
        <mxCell id="6Lm_i7tMnPeAvsVVQIEV-6" value="REMOVE&amp;nbsp;&lt;br&gt;EXPENSE" style="ellipse;whiteSpace=wrap;html=1;" parent="1" vertex="1">
          <mxGeometry x="308" y="60" width="96" height="50" as="geometry" />
        </mxCell>
        <mxCell id="6Lm_i7tMnPeAvsVVQIEV-32" style="edgeStyle=orthogonalEdgeStyle;rounded=0;orthogonalLoop=1;jettySize=auto;html=1;entryX=0;entryY=0.5;entryDx=0;entryDy=0;" parent="1" source="6Lm_i7tMnPeAvsVVQIEV-8" target="6Lm_i7tMnPeAvsVVQIEV-2" edge="1">
          <mxGeometry relative="1" as="geometry" />
        </mxCell>
        <mxCell id="6Lm_i7tMnPeAvsVVQIEV-8" value="SELECT&lt;br&gt;EXPENSE" style="ellipse;whiteSpace=wrap;html=1;" parent="1" vertex="1">
          <mxGeometry x="438" y="60" width="96" height="50" as="geometry" />
        </mxCell>
        <mxCell id="63GdLwM-r-2odrJ0A331-32" value="" style="rounded=0;orthogonalLoop=1;jettySize=auto;html=1;endArrow=none;endFill=0;startArrow=classic;startFill=1;" edge="1" parent="1" source="6Lm_i7tMnPeAvsVVQIEV-9" target="6Lm_i7tMnPeAvsVVQIEV-5">
          <mxGeometry relative="1" as="geometry" />
        </mxCell>
        <mxCell id="6Lm_i7tMnPeAvsVVQIEV-9" value="Expense&amp;nbsp;&lt;br&gt;Category" style="ellipse;whiteSpace=wrap;html=1;" parent="1" vertex="1">
          <mxGeometry x="256" y="-80" width="96" height="50" as="geometry" />
        </mxCell>
        <mxCell id="6Lm_i7tMnPeAvsVVQIEV-10" value="Expense Value" style="ellipse;whiteSpace=wrap;html=1;" parent="1" vertex="1">
          <mxGeometry x="156" y="-80" width="96" height="50" as="geometry" />
        </mxCell>
        <mxCell id="6Lm_i7tMnPeAvsVVQIEV-41" value="use case diagram" style="text;strokeColor=none;fillColor=none;html=1;fontSize=24;fontStyle=1;verticalAlign=middle;align=center;" parent="1" vertex="1">
          <mxGeometry x="320" y="-250" width="100" height="40" as="geometry" />
        </mxCell>
        <mxCell id="63GdLwM-r-2odrJ0A331-14" style="edgeStyle=orthogonalEdgeStyle;rounded=0;orthogonalLoop=1;jettySize=auto;html=1;endArrow=classic;endFill=1;" edge="1" parent="1">
          <mxGeometry relative="1" as="geometry">
            <mxPoint x="84" y="220" as="sourcePoint" />
            <mxPoint x="250" y="300" as="targetPoint" />
            <Array as="points">
              <mxPoint x="250" y="220" />
            </Array>
          </mxGeometry>
        </mxCell>
        <mxCell id="63GdLwM-r-2odrJ0A331-4" value="LOGIN" style="ellipse;whiteSpace=wrap;html=1;" vertex="1" parent="1">
          <mxGeometry x="-10" y="190" width="96" height="50" as="geometry" />
        </mxCell>
        <mxCell id="63GdLwM-r-2odrJ0A331-12" style="edgeStyle=orthogonalEdgeStyle;rounded=0;orthogonalLoop=1;jettySize=auto;html=1;endArrow=none;endFill=0;entryX=0.5;entryY=0.5;entryDx=0;entryDy=0;entryPerimeter=0;" edge="1" parent="1" source="63GdLwM-r-2odrJ0A331-5" target="6Lm_i7tMnPeAvsVVQIEV-1">
          <mxGeometry relative="1" as="geometry">
            <mxPoint y="300" as="targetPoint" />
            <Array as="points">
              <mxPoint x="-30" y="400" />
              <mxPoint x="-30" y="300" />
            </Array>
          </mxGeometry>
        </mxCell>
        <mxCell id="63GdLwM-r-2odrJ0A331-21" style="edgeStyle=orthogonalEdgeStyle;rounded=0;orthogonalLoop=1;jettySize=auto;html=1;endArrow=classic;endFill=1;" edge="1" parent="1" source="63GdLwM-r-2odrJ0A331-5" target="63GdLwM-r-2odrJ0A331-20">
          <mxGeometry relative="1" as="geometry" />
        </mxCell>
        <mxCell id="63GdLwM-r-2odrJ0A331-5" value="SIGNUP" style="ellipse;whiteSpace=wrap;html=1;" vertex="1" parent="1">
          <mxGeometry x="-20" y="370" width="96" height="50" as="geometry" />
        </mxCell>
        <mxCell id="63GdLwM-r-2odrJ0A331-16" value="" style="endArrow=classic;html=1;rounded=0;entryX=0.5;entryY=1;entryDx=0;entryDy=0;endFill=1;" edge="1" parent="1" target="6Lm_i7tMnPeAvsVVQIEV-5">
          <mxGeometry width="50" height="50" relative="1" as="geometry">
            <mxPoint x="270" y="300" as="sourcePoint" />
            <mxPoint x="450" y="380" as="targetPoint" />
          </mxGeometry>
        </mxCell>
        <mxCell id="63GdLwM-r-2odrJ0A331-25" style="edgeStyle=orthogonalEdgeStyle;rounded=0;orthogonalLoop=1;jettySize=auto;html=1;endArrow=classic;endFill=1;" edge="1" parent="1" source="63GdLwM-r-2odrJ0A331-20" target="63GdLwM-r-2odrJ0A331-24">
          <mxGeometry relative="1" as="geometry" />
        </mxCell>
        <mxCell id="63GdLwM-r-2odrJ0A331-20" value="Enter Balance" style="ellipse;whiteSpace=wrap;html=1;" vertex="1" parent="1">
          <mxGeometry x="90" y="370" width="96" height="50" as="geometry" />
        </mxCell>
        <mxCell id="63GdLwM-r-2odrJ0A331-30" style="edgeStyle=orthogonalEdgeStyle;rounded=0;orthogonalLoop=1;jettySize=auto;html=1;endArrow=classic;endFill=1;" edge="1" parent="1" source="63GdLwM-r-2odrJ0A331-24">
          <mxGeometry relative="1" as="geometry">
            <mxPoint x="250" y="300" as="targetPoint" />
            <Array as="points">
              <mxPoint x="248" y="370" />
              <mxPoint x="248" y="370" />
            </Array>
          </mxGeometry>
        </mxCell>
        <mxCell id="63GdLwM-r-2odrJ0A331-24" value="Enter UserName" style="ellipse;whiteSpace=wrap;html=1;" vertex="1" parent="1">
          <mxGeometry x="200" y="370" width="96" height="50" as="geometry" />
        </mxCell>
        <mxCell id="63GdLwM-r-2odrJ0A331-35" style="edgeStyle=none;rounded=0;orthogonalLoop=1;jettySize=auto;html=1;entryX=0.923;entryY=0.217;entryDx=0;entryDy=0;entryPerimeter=0;startArrow=classic;startFill=1;endArrow=none;endFill=0;" edge="1" parent="1" source="63GdLwM-r-2odrJ0A331-33" target="6Lm_i7tMnPeAvsVVQIEV-5">
          <mxGeometry relative="1" as="geometry" />
        </mxCell>
        <mxCell id="63GdLwM-r-2odrJ0A331-33" value="Expense&amp;nbsp;&lt;br&gt;Category" style="ellipse;whiteSpace=wrap;html=1;" vertex="1" parent="1">
          <mxGeometry x="352" y="-60" width="96" height="50" as="geometry" />
        </mxCell>
        <mxCell id="63GdLwM-r-2odrJ0A331-37" style="edgeStyle=none;rounded=0;orthogonalLoop=1;jettySize=auto;html=1;entryX=1;entryY=0.5;entryDx=0;entryDy=0;startArrow=classic;startFill=1;endArrow=none;endFill=0;" edge="1" parent="1" source="63GdLwM-r-2odrJ0A331-36" target="6Lm_i7tMnPeAvsVVQIEV-5">
          <mxGeometry relative="1" as="geometry" />
        </mxCell>
        <mxCell id="63GdLwM-r-2odrJ0A331-36" value="Expense&amp;nbsp;&lt;br&gt;Description" style="ellipse;whiteSpace=wrap;html=1;" vertex="1" parent="1">
          <mxGeometry x="362" y="4" width="96" height="56" as="geometry" />
        </mxCell>
        <mxCell id="63GdLwM-r-2odrJ0A331-42" style="edgeStyle=none;rounded=0;orthogonalLoop=1;jettySize=auto;html=1;startArrow=none;startFill=0;endArrow=classic;endFill=1;" edge="1" parent="1" source="63GdLwM-r-2odrJ0A331-38" target="63GdLwM-r-2odrJ0A331-41">
          <mxGeometry relative="1" as="geometry" />
        </mxCell>
        <mxCell id="63GdLwM-r-2odrJ0A331-44" style="edgeStyle=none;rounded=0;orthogonalLoop=1;jettySize=auto;html=1;startArrow=none;startFill=0;endArrow=classic;endFill=1;" edge="1" parent="1" source="63GdLwM-r-2odrJ0A331-38" target="63GdLwM-r-2odrJ0A331-43">
          <mxGeometry relative="1" as="geometry" />
        </mxCell>
        <mxCell id="63GdLwM-r-2odrJ0A331-46" style="edgeStyle=none;rounded=0;orthogonalLoop=1;jettySize=auto;html=1;startArrow=none;startFill=0;endArrow=classic;endFill=1;" edge="1" parent="1" source="63GdLwM-r-2odrJ0A331-38" target="63GdLwM-r-2odrJ0A331-45">
          <mxGeometry relative="1" as="geometry" />
        </mxCell>
        <mxCell id="63GdLwM-r-2odrJ0A331-38" value="EXPENSE&lt;br&gt;Attachments" style="ellipse;whiteSpace=wrap;html=1;" vertex="1" parent="1">
          <mxGeometry x="60" y="-10" width="96" height="50" as="geometry" />
        </mxCell>
        <mxCell id="63GdLwM-r-2odrJ0A331-40" value="" style="endArrow=classic;html=1;rounded=0;entryX=0;entryY=0.5;entryDx=0;entryDy=0;startArrow=none;startFill=0;endFill=1;" edge="1" parent="1" target="6Lm_i7tMnPeAvsVVQIEV-6">
          <mxGeometry width="50" height="50" relative="1" as="geometry">
            <mxPoint x="270" y="300" as="sourcePoint" />
            <mxPoint x="520" y="160" as="targetPoint" />
          </mxGeometry>
        </mxCell>
        <mxCell id="63GdLwM-r-2odrJ0A331-41" value="Camera" style="ellipse;whiteSpace=wrap;html=1;" vertex="1" parent="1">
          <mxGeometry x="-50" y="-30" width="96" height="50" as="geometry" />
        </mxCell>
        <mxCell id="63GdLwM-r-2odrJ0A331-43" value="Image" style="ellipse;whiteSpace=wrap;html=1;" vertex="1" parent="1">
          <mxGeometry x="14" y="-80" width="96" height="50" as="geometry" />
        </mxCell>
        <mxCell id="63GdLwM-r-2odrJ0A331-45" value="Document" style="ellipse;whiteSpace=wrap;html=1;" vertex="1" parent="1">
          <mxGeometry x="-36" y="33" width="96" height="47" as="geometry" />
        </mxCell>
        <mxCell id="63GdLwM-r-2odrJ0A331-48" value="" style="endArrow=classic;html=1;rounded=0;" edge="1" parent="1">
          <mxGeometry width="50" height="50" relative="1" as="geometry">
            <mxPoint x="250" y="300" as="sourcePoint" />
            <mxPoint x="270" y="300" as="targetPoint" />
          </mxGeometry>
        </mxCell>
        <mxCell id="63GdLwM-r-2odrJ0A331-51" style="edgeStyle=none;rounded=0;orthogonalLoop=1;jettySize=auto;html=1;startArrow=none;startFill=0;endArrow=classic;endFill=1;" edge="1" parent="1" source="63GdLwM-r-2odrJ0A331-49" target="63GdLwM-r-2odrJ0A331-50">
          <mxGeometry relative="1" as="geometry" />
        </mxCell>
        <mxCell id="63GdLwM-r-2odrJ0A331-56" style="edgeStyle=none;rounded=0;orthogonalLoop=1;jettySize=auto;html=1;entryX=0;entryY=1;entryDx=0;entryDy=0;startArrow=none;startFill=0;endArrow=classic;endFill=1;" edge="1" parent="1" source="63GdLwM-r-2odrJ0A331-49" target="63GdLwM-r-2odrJ0A331-55">
          <mxGeometry relative="1" as="geometry" />
        </mxCell>
        <mxCell id="63GdLwM-r-2odrJ0A331-62" style="edgeStyle=none;rounded=0;orthogonalLoop=1;jettySize=auto;html=1;entryX=0;entryY=0.5;entryDx=0;entryDy=0;startArrow=none;startFill=0;endArrow=classic;endFill=1;" edge="1" parent="1" source="63GdLwM-r-2odrJ0A331-49" target="63GdLwM-r-2odrJ0A331-59">
          <mxGeometry relative="1" as="geometry" />
        </mxCell>
        <mxCell id="63GdLwM-r-2odrJ0A331-64" style="edgeStyle=none;rounded=0;orthogonalLoop=1;jettySize=auto;html=1;entryX=0;entryY=0.5;entryDx=0;entryDy=0;startArrow=none;startFill=0;endArrow=classic;endFill=1;" edge="1" parent="1" source="63GdLwM-r-2odrJ0A331-49" target="63GdLwM-r-2odrJ0A331-63">
          <mxGeometry relative="1" as="geometry" />
        </mxCell>
        <mxCell id="63GdLwM-r-2odrJ0A331-85" style="edgeStyle=none;rounded=0;orthogonalLoop=1;jettySize=auto;html=1;startArrow=none;startFill=0;endArrow=classic;endFill=1;" edge="1" parent="1" source="63GdLwM-r-2odrJ0A331-49" target="63GdLwM-r-2odrJ0A331-84">
          <mxGeometry relative="1" as="geometry" />
        </mxCell>
        <mxCell id="63GdLwM-r-2odrJ0A331-49" value="TRANSACTION" style="ellipse;whiteSpace=wrap;html=1;" vertex="1" parent="1">
          <mxGeometry x="482" y="210" width="96" height="40" as="geometry" />
        </mxCell>
        <mxCell id="63GdLwM-r-2odrJ0A331-50" value="Day" style="ellipse;whiteSpace=wrap;html=1;" vertex="1" parent="1">
          <mxGeometry x="458" y="120" width="96" height="40" as="geometry" />
        </mxCell>
        <mxCell id="63GdLwM-r-2odrJ0A331-55" value="Year" style="ellipse;whiteSpace=wrap;html=1;" vertex="1" parent="1">
          <mxGeometry x="564" y="120" width="96" height="40" as="geometry" />
        </mxCell>
        <mxCell id="63GdLwM-r-2odrJ0A331-59" value="Month" style="ellipse;whiteSpace=wrap;html=1;" vertex="1" parent="1">
          <mxGeometry x="594" y="173" width="96" height="40" as="geometry" />
        </mxCell>
        <mxCell id="63GdLwM-r-2odrJ0A331-67" style="edgeStyle=none;rounded=0;orthogonalLoop=1;jettySize=auto;html=1;entryX=0;entryY=1;entryDx=0;entryDy=0;startArrow=none;startFill=0;endArrow=classic;endFill=1;" edge="1" parent="1" source="63GdLwM-r-2odrJ0A331-63" target="63GdLwM-r-2odrJ0A331-65">
          <mxGeometry relative="1" as="geometry" />
        </mxCell>
        <mxCell id="63GdLwM-r-2odrJ0A331-73" style="edgeStyle=none;rounded=0;orthogonalLoop=1;jettySize=auto;html=1;startArrow=none;startFill=0;endArrow=classic;endFill=1;" edge="1" parent="1" source="63GdLwM-r-2odrJ0A331-63" target="63GdLwM-r-2odrJ0A331-72">
          <mxGeometry relative="1" as="geometry" />
        </mxCell>
        <mxCell id="63GdLwM-r-2odrJ0A331-83" style="edgeStyle=none;rounded=0;orthogonalLoop=1;jettySize=auto;html=1;startArrow=none;startFill=0;endArrow=classic;endFill=1;" edge="1" parent="1" source="63GdLwM-r-2odrJ0A331-63" target="63GdLwM-r-2odrJ0A331-82">
          <mxGeometry relative="1" as="geometry" />
        </mxCell>
        <mxCell id="63GdLwM-r-2odrJ0A331-63" value="Filter&lt;br&gt;Option" style="ellipse;whiteSpace=wrap;html=1;" vertex="1" parent="1">
          <mxGeometry x="606" y="260" width="96" height="40" as="geometry" />
        </mxCell>
        <mxCell id="63GdLwM-r-2odrJ0A331-69" style="edgeStyle=none;rounded=0;orthogonalLoop=1;jettySize=auto;html=1;startArrow=none;startFill=0;endArrow=classic;endFill=1;" edge="1" parent="1" source="63GdLwM-r-2odrJ0A331-65" target="63GdLwM-r-2odrJ0A331-68">
          <mxGeometry relative="1" as="geometry" />
        </mxCell>
        <mxCell id="63GdLwM-r-2odrJ0A331-71" style="edgeStyle=none;rounded=0;orthogonalLoop=1;jettySize=auto;html=1;startArrow=none;startFill=0;endArrow=classic;endFill=1;" edge="1" parent="1" source="63GdLwM-r-2odrJ0A331-65" target="63GdLwM-r-2odrJ0A331-70">
          <mxGeometry relative="1" as="geometry" />
        </mxCell>
        <mxCell id="63GdLwM-r-2odrJ0A331-65" value="Filter&lt;br&gt;By" style="ellipse;whiteSpace=wrap;html=1;" vertex="1" parent="1">
          <mxGeometry x="662" y="210" width="96" height="40" as="geometry" />
        </mxCell>
        <mxCell id="63GdLwM-r-2odrJ0A331-66" value="" style="endArrow=classic;html=1;rounded=0;entryX=0;entryY=1;entryDx=0;entryDy=0;" edge="1" parent="1" target="63GdLwM-r-2odrJ0A331-49">
          <mxGeometry width="50" height="50" relative="1" as="geometry">
            <mxPoint x="270" y="300" as="sourcePoint" />
            <mxPoint x="370" y="150" as="targetPoint" />
          </mxGeometry>
        </mxCell>
        <mxCell id="63GdLwM-r-2odrJ0A331-68" value="Income" style="ellipse;whiteSpace=wrap;html=1;" vertex="1" parent="1">
          <mxGeometry x="684" y="150" width="96" height="40" as="geometry" />
        </mxCell>
        <mxCell id="63GdLwM-r-2odrJ0A331-70" value="Expense" style="ellipse;whiteSpace=wrap;html=1;" vertex="1" parent="1">
          <mxGeometry x="772" y="190" width="96" height="40" as="geometry" />
        </mxCell>
        <mxCell id="63GdLwM-r-2odrJ0A331-75" style="edgeStyle=none;rounded=0;orthogonalLoop=1;jettySize=auto;html=1;startArrow=none;startFill=0;endArrow=classic;endFill=1;" edge="1" parent="1" source="63GdLwM-r-2odrJ0A331-72" target="63GdLwM-r-2odrJ0A331-74">
          <mxGeometry relative="1" as="geometry" />
        </mxCell>
        <mxCell id="63GdLwM-r-2odrJ0A331-77" style="edgeStyle=none;rounded=0;orthogonalLoop=1;jettySize=auto;html=1;startArrow=none;startFill=0;endArrow=classic;endFill=1;" edge="1" parent="1" source="63GdLwM-r-2odrJ0A331-72" target="63GdLwM-r-2odrJ0A331-76">
          <mxGeometry relative="1" as="geometry" />
        </mxCell>
        <mxCell id="63GdLwM-r-2odrJ0A331-79" style="edgeStyle=none;rounded=0;orthogonalLoop=1;jettySize=auto;html=1;startArrow=none;startFill=0;endArrow=classic;endFill=1;" edge="1" parent="1" source="63GdLwM-r-2odrJ0A331-72" target="63GdLwM-r-2odrJ0A331-78">
          <mxGeometry relative="1" as="geometry" />
        </mxCell>
        <mxCell id="63GdLwM-r-2odrJ0A331-81" style="edgeStyle=none;rounded=0;orthogonalLoop=1;jettySize=auto;html=1;startArrow=none;startFill=0;endArrow=classic;endFill=1;" edge="1" parent="1" source="63GdLwM-r-2odrJ0A331-72" target="63GdLwM-r-2odrJ0A331-80">
          <mxGeometry relative="1" as="geometry" />
        </mxCell>
        <mxCell id="63GdLwM-r-2odrJ0A331-72" value="Sort By" style="ellipse;whiteSpace=wrap;html=1;" vertex="1" parent="1">
          <mxGeometry x="722" y="263" width="96" height="40" as="geometry" />
        </mxCell>
        <mxCell id="63GdLwM-r-2odrJ0A331-74" value="Newest" style="ellipse;whiteSpace=wrap;html=1;" vertex="1" parent="1">
          <mxGeometry x="827" y="240" width="96" height="40" as="geometry" />
        </mxCell>
        <mxCell id="63GdLwM-r-2odrJ0A331-76" value="Oldest" style="ellipse;whiteSpace=wrap;html=1;" vertex="1" parent="1">
          <mxGeometry x="827" y="300" width="96" height="40" as="geometry" />
        </mxCell>
        <mxCell id="63GdLwM-r-2odrJ0A331-78" value="Highest" style="ellipse;whiteSpace=wrap;html=1;" vertex="1" parent="1">
          <mxGeometry x="772" y="340" width="96" height="40" as="geometry" />
        </mxCell>
        <mxCell id="63GdLwM-r-2odrJ0A331-80" value="Lowest" style="ellipse;whiteSpace=wrap;html=1;" vertex="1" parent="1">
          <mxGeometry x="676" y="350" width="96" height="40" as="geometry" />
        </mxCell>
        <mxCell id="63GdLwM-r-2odrJ0A331-82" value="Category" style="ellipse;whiteSpace=wrap;html=1;" vertex="1" parent="1">
          <mxGeometry x="606" y="320" width="96" height="40" as="geometry" />
        </mxCell>
        <mxCell id="63GdLwM-r-2odrJ0A331-84" value="Financial Report" style="ellipse;whiteSpace=wrap;html=1;" vertex="1" parent="1">
          <mxGeometry x="498" y="290" width="96" height="40" as="geometry" />
        </mxCell>
        <mxCell id="63GdLwM-r-2odrJ0A331-91" style="edgeStyle=none;rounded=0;orthogonalLoop=1;jettySize=auto;html=1;startArrow=none;startFill=0;endArrow=classic;endFill=1;exitX=1;exitY=0.5;exitDx=0;exitDy=0;" edge="1" parent="1" source="63GdLwM-r-2odrJ0A331-88" target="63GdLwM-r-2odrJ0A331-90">
          <mxGeometry relative="1" as="geometry">
            <mxPoint x="638.5378813280158" y="407.4687243503175" as="sourcePoint" />
          </mxGeometry>
        </mxCell>
        <mxCell id="63GdLwM-r-2odrJ0A331-105" style="edgeStyle=none;rounded=0;orthogonalLoop=1;jettySize=auto;html=1;entryX=0.5;entryY=0;entryDx=0;entryDy=0;startArrow=none;startFill=0;endArrow=classic;endFill=1;" edge="1" parent="1" source="63GdLwM-r-2odrJ0A331-88" target="63GdLwM-r-2odrJ0A331-103">
          <mxGeometry relative="1" as="geometry" />
        </mxCell>
        <mxCell id="63GdLwM-r-2odrJ0A331-108" style="edgeStyle=none;rounded=0;orthogonalLoop=1;jettySize=auto;html=1;entryX=0.5;entryY=0;entryDx=0;entryDy=0;startArrow=none;startFill=0;endArrow=classic;endFill=1;" edge="1" parent="1" source="63GdLwM-r-2odrJ0A331-88" target="63GdLwM-r-2odrJ0A331-92">
          <mxGeometry relative="1" as="geometry" />
        </mxCell>
        <mxCell id="63GdLwM-r-2odrJ0A331-88" value="Budget" style="ellipse;whiteSpace=wrap;html=1;" vertex="1" parent="1">
          <mxGeometry x="498" y="372.57" width="96" height="40" as="geometry" />
        </mxCell>
        <mxCell id="63GdLwM-r-2odrJ0A331-89" value="" style="endArrow=classic;html=1;rounded=0;entryX=0;entryY=0;entryDx=0;entryDy=0;" edge="1" parent="1" target="63GdLwM-r-2odrJ0A331-88">
          <mxGeometry width="50" height="50" relative="1" as="geometry">
            <mxPoint x="270" y="300" as="sourcePoint" />
            <mxPoint x="420" y="350" as="targetPoint" />
          </mxGeometry>
        </mxCell>
        <mxCell id="63GdLwM-r-2odrJ0A331-95" style="edgeStyle=none;rounded=0;orthogonalLoop=1;jettySize=auto;html=1;startArrow=none;startFill=0;endArrow=classic;endFill=1;exitX=0.5;exitY=1;exitDx=0;exitDy=0;" edge="1" parent="1" source="63GdLwM-r-2odrJ0A331-90" target="63GdLwM-r-2odrJ0A331-94">
          <mxGeometry relative="1" as="geometry">
            <mxPoint x="711.5384615384619" y="445.9515384615381" as="sourcePoint" />
          </mxGeometry>
        </mxCell>
        <mxCell id="63GdLwM-r-2odrJ0A331-97" style="edgeStyle=none;rounded=0;orthogonalLoop=1;jettySize=auto;html=1;startArrow=none;startFill=0;endArrow=classic;endFill=1;exitX=0.5;exitY=1;exitDx=0;exitDy=0;" edge="1" parent="1" source="63GdLwM-r-2odrJ0A331-90" target="63GdLwM-r-2odrJ0A331-96">
          <mxGeometry relative="1" as="geometry">
            <mxPoint x="740.5306892461299" y="447.00274772077023" as="sourcePoint" />
          </mxGeometry>
        </mxCell>
        <mxCell id="63GdLwM-r-2odrJ0A331-100" style="edgeStyle=none;rounded=0;orthogonalLoop=1;jettySize=auto;html=1;startArrow=none;startFill=0;endArrow=classic;endFill=1;exitX=0.5;exitY=1;exitDx=0;exitDy=0;" edge="1" parent="1" source="63GdLwM-r-2odrJ0A331-90" target="63GdLwM-r-2odrJ0A331-99">
          <mxGeometry relative="1" as="geometry">
            <mxPoint x="769.1039386399852" y="439.0886258677922" as="sourcePoint" />
          </mxGeometry>
        </mxCell>
        <mxCell id="63GdLwM-r-2odrJ0A331-90" value="Create&lt;br&gt;Budget" style="ellipse;whiteSpace=wrap;html=1;" vertex="1" parent="1">
          <mxGeometry x="682" y="397.57" width="96" height="40" as="geometry" />
        </mxCell>
        <mxCell id="63GdLwM-r-2odrJ0A331-92" value="Remove&lt;br&gt;Budget" style="ellipse;whiteSpace=wrap;html=1;" vertex="1" parent="1">
          <mxGeometry x="438" y="430" width="96" height="40" as="geometry" />
        </mxCell>
        <mxCell id="63GdLwM-r-2odrJ0A331-94" value="Budget&lt;br&gt;Value" style="ellipse;whiteSpace=wrap;html=1;" vertex="1" parent="1">
          <mxGeometry x="612" y="477.49" width="96" height="40" as="geometry" />
        </mxCell>
        <mxCell id="63GdLwM-r-2odrJ0A331-96" value="Budget&lt;br&gt;Category" style="ellipse;whiteSpace=wrap;html=1;" vertex="1" parent="1">
          <mxGeometry x="720" y="477.49" width="96" height="40" as="geometry" />
        </mxCell>
        <mxCell id="63GdLwM-r-2odrJ0A331-102" style="edgeStyle=none;rounded=0;orthogonalLoop=1;jettySize=auto;html=1;startArrow=none;startFill=0;endArrow=classic;endFill=1;" edge="1" parent="1" source="63GdLwM-r-2odrJ0A331-99" target="63GdLwM-r-2odrJ0A331-101">
          <mxGeometry relative="1" as="geometry" />
        </mxCell>
        <mxCell id="63GdLwM-r-2odrJ0A331-99" value="Receive&lt;br&gt;Alert" style="ellipse;whiteSpace=wrap;html=1;" vertex="1" parent="1">
          <mxGeometry x="772" y="437.57" width="96" height="40" as="geometry" />
        </mxCell>
        <mxCell id="63GdLwM-r-2odrJ0A331-101" value="Alert&lt;br&gt;Point" style="ellipse;whiteSpace=wrap;html=1;" vertex="1" parent="1">
          <mxGeometry x="818" y="490" width="96" height="40" as="geometry" />
        </mxCell>
        <mxCell id="63GdLwM-r-2odrJ0A331-103" value="See&lt;br&gt;Budgets" style="ellipse;whiteSpace=wrap;html=1;" vertex="1" parent="1">
          <mxGeometry x="540" y="430" width="96" height="40" as="geometry" />
        </mxCell>
        <mxCell id="63GdLwM-r-2odrJ0A331-112" style="edgeStyle=none;rounded=0;orthogonalLoop=1;jettySize=auto;html=1;startArrow=none;startFill=0;endArrow=classic;endFill=1;" edge="1" parent="1" source="63GdLwM-r-2odrJ0A331-109" target="63GdLwM-r-2odrJ0A331-111">
          <mxGeometry relative="1" as="geometry" />
        </mxCell>
        <mxCell id="63GdLwM-r-2odrJ0A331-114" style="edgeStyle=none;rounded=0;orthogonalLoop=1;jettySize=auto;html=1;startArrow=none;startFill=0;endArrow=classic;endFill=1;" edge="1" parent="1" source="63GdLwM-r-2odrJ0A331-109" target="63GdLwM-r-2odrJ0A331-113">
          <mxGeometry relative="1" as="geometry" />
        </mxCell>
        <mxCell id="63GdLwM-r-2odrJ0A331-116" style="edgeStyle=none;rounded=0;orthogonalLoop=1;jettySize=auto;html=1;startArrow=none;startFill=0;endArrow=classic;endFill=1;" edge="1" parent="1" source="63GdLwM-r-2odrJ0A331-109" target="63GdLwM-r-2odrJ0A331-115">
          <mxGeometry relative="1" as="geometry" />
        </mxCell>
        <mxCell id="63GdLwM-r-2odrJ0A331-118" style="edgeStyle=none;rounded=0;orthogonalLoop=1;jettySize=auto;html=1;startArrow=none;startFill=0;endArrow=classic;endFill=1;" edge="1" parent="1" source="63GdLwM-r-2odrJ0A331-109" target="63GdLwM-r-2odrJ0A331-117">
          <mxGeometry relative="1" as="geometry" />
        </mxCell>
        <mxCell id="63GdLwM-r-2odrJ0A331-109" value="Profile" style="ellipse;whiteSpace=wrap;html=1;" vertex="1" parent="1">
          <mxGeometry x="308" y="407.49" width="96" height="40" as="geometry" />
        </mxCell>
        <mxCell id="63GdLwM-r-2odrJ0A331-110" value="" style="endArrow=classic;html=1;rounded=0;entryX=0.5;entryY=0;entryDx=0;entryDy=0;" edge="1" parent="1" target="63GdLwM-r-2odrJ0A331-109">
          <mxGeometry width="50" height="50" relative="1" as="geometry">
            <mxPoint x="270" y="300" as="sourcePoint" />
            <mxPoint x="430" y="310" as="targetPoint" />
          </mxGeometry>
        </mxCell>
        <mxCell id="63GdLwM-r-2odrJ0A331-111" value="Account" style="ellipse;whiteSpace=wrap;html=1;" vertex="1" parent="1">
          <mxGeometry x="202" y="430" width="96" height="40" as="geometry" />
        </mxCell>
        <mxCell id="63GdLwM-r-2odrJ0A331-113" value="Settings" style="ellipse;whiteSpace=wrap;html=1;" vertex="1" parent="1">
          <mxGeometry x="212" y="477.49" width="96" height="40" as="geometry" />
        </mxCell>
        <mxCell id="63GdLwM-r-2odrJ0A331-115" value="Export&lt;br&gt;Data" style="ellipse;whiteSpace=wrap;html=1;" vertex="1" parent="1">
          <mxGeometry x="308" y="490" width="96" height="40" as="geometry" />
        </mxCell>
        <mxCell id="63GdLwM-r-2odrJ0A331-119" value="" style="rounded=0;whiteSpace=wrap;html=1;fillColor=none;" vertex="1" parent="1">
          <mxGeometry x="-60" y="-160" width="990" height="710" as="geometry" />
        </mxCell>
        <mxCell id="63GdLwM-r-2odrJ0A331-117" value="Logout" style="ellipse;whiteSpace=wrap;html=1;" vertex="1" parent="1">
          <mxGeometry x="414" y="477.49" width="96" height="40" as="geometry" />
        </mxCell>
        <mxCell id="63GdLwM-r-2odrJ0A331-122" value="Expense Management System" style="text;strokeColor=none;fillColor=none;html=1;fontSize=24;fontStyle=1;verticalAlign=middle;align=center;" vertex="1" parent="1">
          <mxGeometry x="279.5" y="-150" width="365" height="40" as="geometry" />
        </mxCell>
      </root>
    </mxGraphModel>
  </diagram>
</mxfile>
